<?xml version="1.0" encoding="UTF-8"?>
<svg version="1.1" xmlns="http://www.w3.org/2000/svg" width="712" height="712">
<path d="M0 0 C63.36 0 126.72 0 192 0 C192 105.6 192 211.2 192 320 C297.6 320 403.2 320 512 320 C512 383.36 512 446.72 512 512 C343.04 512 174.08 512 0 512 C0 343.04 0 174.08 0 0 Z " fill="#8A84AC" transform="translate(100,100)"/>
<path d="M0 0 C63.36 0 126.72 0 192 0 C192 63.36 192 126.72 192 192 C128.64 192 65.28 192 0 192 C0 128.64 0 65.28 0 0 Z " fill="#A77694" transform="translate(420,100)"/>
</svg>
